<svg xmlns="http://www.w3.org/2000/svg" width="18.979" height="18.955" viewBox="0 0 18.979 18.955"><defs><style>.a{fill:#fefeff;}</style></defs><g transform="translate(-59.977 -17.978)"><path class="a" d="M-3065.467,548.955a9.382,9.382,0,0,1-3.729-.77,1.179,1.179,0,0,0-.463-.094,1.213,1.213,0,0,0-.142.008l-4.043.813h-.212a.954.954,0,0,1-.666-.274.944.944,0,0,1-.255-.859l.831-4a.99.99,0,0,0-.085-.6,9.455,9.455,0,0,1,3.388-11.56,9.406,9.406,0,0,1,5.285-1.619,9.388,9.388,0,0,1,6.705,2.788l.047.019a9.456,9.456,0,0,1,1.169,11.99l-.1.14-1.243-1.243a1.516,1.516,0,0,0-.185-.157,7.515,7.515,0,0,0,1.092-2.851,7.576,7.576,0,0,0-2.114-6.566,7.5,7.5,0,0,0-5.343-2.214,7.588,7.588,0,0,0-1.224.1,7.513,7.513,0,0,0-5.392,3.8,7.516,7.516,0,0,0-.351,6.589,2.9,2.9,0,0,1,.2,1.71l-.538,2.663,2.664-.538a3.277,3.277,0,0,1,.529-.047,3.049,3.049,0,0,1,1.181.246,7.521,7.521,0,0,0,2.933.592,7.571,7.571,0,0,0,3.655-.943,7.512,7.512,0,0,0,.65-.4,1.51,1.51,0,0,0,.124.141l1.273,1.273A9.516,9.516,0,0,1-3065.467,548.955Z" transform="translate(3134.975 -512.022)"/></g></svg>