<svg xmlns="http://www.w3.org/2000/svg" width="21.763" height="21.086" viewBox="0 0 21.763 21.086"><defs><style>.a{fill:#fefeff;}</style></defs><path class="a" d="M19.723,18.01v-.349a.326.326,0,0,0-.016-.079,2.371,2.371,0,0,0-1-4.307V8.82a1.02,1.02,0,0,0-1.02-1.02H14.274a2.12,2.12,0,0,0-2.032-2.031V5.419a.326.326,0,0,0-.016-.079,2.38,2.38,0,1,0-2.688,0,.326.326,0,0,0-.016.079v.349A2.12,2.12,0,0,0,7.489,7.8H4.081A1.02,1.02,0,0,0,3.06,8.82v4.455a2.371,2.371,0,0,0-1,4.307.326.326,0,0,0-.016.079v.349A2.124,2.124,0,0,0,0,20.126v.935a1.02,1.02,0,0,0,1.02,1.02H5.781a1.02,1.02,0,0,0,1.02-1.02v-.935a2.124,2.124,0,0,0-2.04-2.116v-.349a.326.326,0,0,0-.016-.079,2.371,2.371,0,0,0,.974-2.5c-.222-.954-.669-1.673-1.638-1.809V9.16c0-.188.066-.34.254-.34H7.481A1.02,1.02,0,0,0,8.5,9.84h1.836v3.435a2.142,2.142,0,0,0-1.775,1.809,2.371,2.371,0,0,0,.974,2.5.326.326,0,0,0-.016.079v.349a2.124,2.124,0,0,0-2.04,2.116v.935a1.02,1.02,0,0,0,1.02,1.02h4.761a1.02,1.02,0,0,0,1.02-1.02v-.935a2.124,2.124,0,0,0-2.04-2.116v-.349a.326.326,0,0,0-.016-.079,2.371,2.371,0,0,0,.974-2.5c-.222-.954-.669-1.673-1.638-1.809V9.84h1.7a1.02,1.02,0,0,0,1.02-1.02h3.4c.188,0,0-.188,0,0v4.455c-.97.136-1.416.855-1.638,1.809a2.371,2.371,0,0,0,.974,2.5.326.326,0,0,0-.016.079v.349a2.124,2.124,0,0,0-2.04,2.116v.935a1.02,1.02,0,0,0,1.02,1.02h4.761a1.02,1.02,0,0,0,1.02-1.02v-.935a2.124,2.124,0,0,0-2.04-2.116Zm-13.6,2.116v.935a.34.34,0,0,1-.34.34H1.02a.34.34,0,0,1-.34-.34v-.935a1.447,1.447,0,0,1,1.445-1.445h.1a1.348,1.348,0,0,0,2.352-.019.33.33,0,0,0,.094.019,1.447,1.447,0,0,1,1.445,1.445ZM2.72,18V17.89A2.346,2.346,0,0,0,3.4,18a2.346,2.346,0,0,0,.68-.111V18a.68.68,0,0,1-1.36,0ZM5.1,15.627a1.7,1.7,0,1,1-3.4,0,.334.334,0,0,0,.078-.015l1.078-.434a.827.827,0,0,1,.535-.029l1.668.476H5.1Zm-.177-.748L3.575,14.5a1.521,1.521,0,0,0-.976.052l-.7.28a1.687,1.687,0,0,1,3.018.052Zm5.958-13.2a1.7,1.7,0,0,1,1.523.959l-1.349-.384a1.517,1.517,0,0,0-.976.052l-.694.28a1.7,1.7,0,0,1,1.5-.907Zm-1.7,1.707a.334.334,0,0,0,.078-.015l1.078-.434a.823.823,0,0,1,.535-.029l1.668.476.044,0a1.7,1.7,0,1,1-3.4,0Zm2.38,2.263v.111a.68.68,0,1,1-1.36,0V5.648A2.139,2.139,0,0,0,11.562,5.648ZM13.6,20.126v.935a.34.34,0,0,1-.34.34H8.5a.34.34,0,0,1-.34-.34v-.935a1.447,1.447,0,0,1,1.445-1.445h.1a1.348,1.348,0,0,0,2.352-.019.33.33,0,0,0,.094.019A1.447,1.447,0,0,1,13.6,20.126ZM10.2,18V17.89a2.139,2.139,0,0,0,1.36,0V18a.68.68,0,0,1-1.36,0Zm2.38-2.374a1.7,1.7,0,1,1-3.4,0,.334.334,0,0,0,.078-.015l1.078-.434a.827.827,0,0,1,.535-.029l1.668.476h.041Zm-.177-.748L11.056,14.5a1.521,1.521,0,0,0-.976.052l-.693.28a1.687,1.687,0,0,1,3.018.052Zm1.2-6.06a.34.34,0,0,1-.34.34H8.5a.34.34,0,0,1-.34-.34V7.884A1.447,1.447,0,0,1,9.606,6.439h.1a1.348,1.348,0,0,0,2.352-.019.33.33,0,0,0,.094.019A1.447,1.447,0,0,1,13.6,7.884Zm4.761,5.1a1.7,1.7,0,0,1,1.523.959L18.536,14.5a1.521,1.521,0,0,0-.976.052l-.693.28a1.7,1.7,0,0,1,1.495-.907Zm-1.7,1.707a.334.334,0,0,0,.078-.015l1.078-.434a.827.827,0,0,1,.535-.029l1.668.476a.317.317,0,0,0,.044,0,1.7,1.7,0,0,1-3.4,0Zm2.38,2.263V18a.68.68,0,1,1-1.36,0V17.89a2.139,2.139,0,0,0,1.36,0Zm2.04,3.171a.34.34,0,0,1-.34.34H15.982a.34.34,0,0,1-.34-.34v-.935a1.447,1.447,0,0,1,1.445-1.445h.1a1.348,1.348,0,0,0,2.352-.019.33.33,0,0,0,.094.019,1.447,1.447,0,0,1,1.445,1.445Z" transform="translate(0 -0.996)"/></svg>