<svg xmlns="http://www.w3.org/2000/svg" width="18.749" height="19.8" viewBox="0 0 18.749 19.8"><defs><style>.a{fill:#fefeff;}</style></defs><path class="a" d="M6.546,16.1a1.31,1.31,0,0,0,.927-.382l.108-.109v7.451a2.142,2.142,0,0,0,2.1,2.182H19.5a2.142,2.142,0,0,0,2.1-2.182V15.613l.108.109a1.311,1.311,0,0,0,1.876-.022,1.431,1.431,0,0,0-.018-1.989L15.521,5.919c-.827-.768-1.046-.478-1.6,0L5.633,13.711a1.432,1.432,0,0,0-.313,1.514,1.343,1.343,0,0,0,1.227.879Zm6.65,9.142V19.791H16v5.455Z" transform="translate(-5.225 -5.445)"/></svg>