<svg xmlns="http://www.w3.org/2000/svg" width="19.542" height="19.538" viewBox="0 0 19.542 19.538"><defs><style>.a{fill:#fff;}</style></defs><g transform="translate(-1.992 -2)"><path class="a" d="M5.994,21.542a3.983,3.983,0,0,1-1.562-.316.444.444,0,0,1-.141-.722l1.57-1.569V17.678H4.6l-1.57,1.569a.444.444,0,0,1-.722-.141A4,4,0,0,1,7.265,13.76l6.484-6.484a4,4,0,0,1,5.345-4.953.444.444,0,0,1,.141.722l-1.57,1.57V5.872h1.256L20.492,4.3a.444.444,0,0,1,.722.141,4,4,0,0,1-4.952,5.345L9.777,16.273a3.993,3.993,0,0,1-3.784,5.269Zm-.549-.936a3.135,3.135,0,0,0,.549.048,3.1,3.1,0,0,0,2.858-4.319.444.444,0,0,1,.1-.487l6.89-6.89a.444.444,0,0,1,.487-.1A3.107,3.107,0,0,0,20.6,5.454L19.42,6.63a.444.444,0,0,1-.314.13H17.222a.444.444,0,0,1-.444-.444V4.432a.442.442,0,0,1,.13-.314l1.175-1.175a3.143,3.143,0,0,0-.55-.048,3.1,3.1,0,0,0-2.858,4.319.444.444,0,0,1-.1.487l-6.89,6.89a.444.444,0,0,1-.487.1A3.107,3.107,0,0,0,2.931,18.1L4.107,16.92a.444.444,0,0,1,.314-.13H6.3a.444.444,0,0,1,.444.444v1.884a.442.442,0,0,1-.13.314L5.444,20.606Z" transform="translate(0 -0.004)"/><path class="a" d="M35.154,36.93a1.765,1.765,0,0,1-1.256-.52l-4.082-4.082a.444.444,0,0,1,0-.628L31.7,29.816a.444.444,0,0,1,.628,0L36.41,33.9a1.776,1.776,0,0,1-1.256,3.032Zm-4.4-4.916,3.768,3.768a.909.909,0,0,0,1.256,0,.888.888,0,0,0,0-1.256l-3.768-3.768-1.256,1.256Z" transform="translate(-15.396 -15.392)"/><path class="a" d="M0,0H7.166V.888H0Z" transform="translate(5.894 5.27) rotate(45)"/><path class="a" d="M28.007,32.221a.444.444,0,0,1-.314-.758L31.461,27.7a.444.444,0,0,1,.628.628l-3.768,3.768a.443.443,0,0,1-.314.13Z" transform="translate(-14.216 -14.213)"/><path class="a" d="M4.955,6.656a.443.443,0,0,1-.314-.13L2.129,4.014a.442.442,0,0,1,0-.628L3.385,2.13a.444.444,0,0,1,.628,0L6.525,4.642a.443.443,0,0,1,0,.628L5.269,6.526a.441.441,0,0,1-.314.13ZM3.071,3.7,4.955,5.584l.628-.628L3.7,3.072,3.071,3.7Z" transform="translate(-0.003)"/><path class="a" d="M0,0H4.61V.888H0Z" transform="translate(12.845 12.22) rotate(45)"/></g></svg>