<svg xmlns="http://www.w3.org/2000/svg" width="20.001" height="20.046" viewBox="0 0 20.001 20.046"><defs><style>.a,.b{fill:#fefeff;}.b{fill-rule:evenodd;}</style></defs><g transform="translate(0 0)"><path class="a" d="M-3118.227,578.045h-13.545a3.115,3.115,0,0,1-3.227-2.981V562.5a3.127,3.127,0,0,1,3.227-2.921h1.583v-1.111a.482.482,0,0,1,.506-.468.539.539,0,0,1,.57.468v1.111h8.229v-1.111a.545.545,0,0,1,.569-.468.522.522,0,0,1,.507.468v1.111h1.582A3.128,3.128,0,0,1-3115,562.5V571h-1.076v-5.753h-17.849v9.818a2.1,2.1,0,0,0,2.152,1.987h13.545a2.1,2.1,0,0,0,2.152-1.987V574l1.076,0v1.065A3.115,3.115,0,0,1-3118.227,578.045Zm-13.545-17.474a2.052,2.052,0,0,0-2.152,1.929v1.753h17.849V562.5a2.052,2.052,0,0,0-2.152-1.929h-1.582v1.169a.53.53,0,0,1-.507.526.549.549,0,0,1-.569-.526V560.57h-8.229v1.169a.55.55,0,0,1-.57.526.494.494,0,0,1-.506-.526V560.57Z" transform="translate(3135 -557.999)"/><path class="b" d="M50.021,150h2.562a.551.551,0,0,1,.576.526v2.279a.551.551,0,0,1-.576.526H50.021a.551.551,0,0,1-.576-.526v-2.279A.551.551,0,0,1,50.021,150Zm5.444,0h2.5a.551.551,0,0,1,.576.526v2.279a.551.551,0,0,1-.576.526h-2.5a.551.551,0,0,1-.576-.526v-2.279A.551.551,0,0,1,55.465,150Zm-10.889,4.792h2.562a.551.551,0,0,1,.576.526V157.6a.551.551,0,0,1-.576.526H44.576A.551.551,0,0,1,44,157.6v-2.279A.551.551,0,0,1,44.576,154.792Zm5.444,0h2.562a.551.551,0,0,1,.576.526V157.6a.551.551,0,0,1-.576.526H50.021a.551.551,0,0,1-.576-.526v-2.279A.551.551,0,0,1,50.021,154.792Zm5.444,0h2.5a.551.551,0,0,1,.576.526V157.6a.551.551,0,0,1-.576.526h-2.5a.551.551,0,0,1-.576-.526v-2.279A.551.551,0,0,1,55.465,154.792Z" transform="translate(-41.3 -141.234)"/></g></svg>