<svg xmlns="http://www.w3.org/2000/svg" width="22" height="22" viewBox="0 0 22 22"><defs><style>.a,.b{fill:#8a94a6;}.a{opacity:0;}</style></defs><g transform="translate(-0.287 -0.287)"><rect class="a" width="22" height="22" transform="translate(0.287 0.287)"/><path class="b" d="M19.27,14.267,17.6,12.586V8.445a6.37,6.37,0,0,0-5.4-6.389A6.259,6.259,0,0,0,5.118,8.25v4.337L3.446,14.267a1.523,1.523,0,0,0,1.077,2.591h3.12l.706.316c.09,1.963,1.045,3.483,3.008,3.4,1.963.084,2.808-1.436,2.9-3.4l.816-.316h3.12a1.523,1.523,0,0,0,1.077-2.591ZM12.4,17.174c-.107.928-.11,1.607-1.042,1.542-.932.066-1.044-.614-1.151-1.542L9.5,16.858h3.714ZM5.331,15l1.1-1.1a1.857,1.857,0,0,0,.548-1.319V8.25a4.392,4.392,0,0,1,1.5-3.306,4.337,4.337,0,0,1,3.473-1.086,4.513,4.513,0,0,1,3.789,4.55v4.179a1.857,1.857,0,0,0,.539,1.319L17.385,15Z" transform="translate(-0.215 -0.143)"/><ellipse class="b" cx="1" cy="1.5" rx="1" ry="1.5" transform="translate(10.287 0.287)"/></g></svg>