<svg xmlns="http://www.w3.org/2000/svg" width="19.91" height="19.91" viewBox="0 0 19.91 19.91"><defs><style>.a{fill:#fefeff;}</style></defs><path class="a" d="M-3102.045,932.909a9.966,9.966,0,0,1-9.955-9.955,9.966,9.966,0,0,1,9.955-9.955,9.966,9.966,0,0,1,9.955,9.955,9.977,9.977,0,0,1-2.208,6.253l-1.267-1.621a7.907,7.907,0,0,0,1.485-4.632,7.973,7.973,0,0,0-7.964-7.963,7.973,7.973,0,0,0-7.964,7.963,7.973,7.973,0,0,0,7.964,7.964,7.892,7.892,0,0,0,3.409-.765l1.25,1.6A9.974,9.974,0,0,1-3102.045,932.909Zm-1.494-6.168h0a1,1,0,0,1-.5-.133,1,1,0,0,1-.368-1.364l1.364-2.359v-4.908a1,1,0,0,1,1-1,1,1,0,0,1,1,1v4.977l-.02.11a.984.984,0,0,1-.11.587l-1.493,2.588A1,1,0,0,1-3103.54,926.741Z" transform="translate(3112 -913)"/></svg>