<svg xmlns="http://www.w3.org/2000/svg" xmlns:xlink="http://www.w3.org/1999/xlink" width="38" height="37" viewBox="0 0 38 37"><defs><style>.a{fill:#fff;}.b{filter:url(#g);}.c{filter:url(#e);}.d{filter:url(#c);}.e{filter:url(#a);}</style><filter id="a" x="0" y="0" width="27" height="27" filterUnits="userSpaceOnUse"><feOffset dy="3" input="SourceAlpha"/><feGaussianBlur stdDeviation="3" result="b"/><feFlood flood-opacity="0.161"/><feComposite operator="in" in2="b"/><feComposite in="SourceGraphic"/></filter><filter id="c" x="11" y="0" width="27" height="27" filterUnits="userSpaceOnUse"><feOffset dy="3" input="SourceAlpha"/><feGaussianBlur stdDeviation="3" result="d"/><feFlood flood-opacity="0.161"/><feComposite operator="in" in2="d"/><feComposite in="SourceGraphic"/></filter><filter id="e" x="0" y="10" width="27" height="27" filterUnits="userSpaceOnUse"><feOffset dy="3" input="SourceAlpha"/><feGaussianBlur stdDeviation="3" result="f"/><feFlood flood-opacity="0.161"/><feComposite operator="in" in2="f"/><feComposite in="SourceGraphic"/></filter><filter id="g" x="11" y="10" width="27" height="27" filterUnits="userSpaceOnUse"><feOffset dy="3" input="SourceAlpha"/><feGaussianBlur stdDeviation="3" result="h"/><feFlood flood-opacity="0.161"/><feComposite operator="in" in2="h"/><feComposite in="SourceGraphic"/></filter></defs><g transform="translate(-14.001 -303.001)"><g class="e" transform="matrix(1, 0, 0, 1, 14, 303)"><path class="a" d="M-3106,922h-3a3,3,0,0,1-3-3v-3a3,3,0,0,1,3-3h3a3,3,0,0,1,3,3v3A3,3,0,0,1-3106,922Zm-3.1-8.1a2,2,0,0,0-2,2v3.2a2,2,0,0,0,2,2h3.2a2,2,0,0,0,2-2v-3.2a2,2,0,0,0-2-2Z" transform="translate(3121 -907)"/></g><g class="d" transform="matrix(1, 0, 0, 1, 14, 303)"><path class="a" d="M-3106,922h-3a3,3,0,0,1-3-3v-3a3,3,0,0,1,3-3h3a3,3,0,0,1,3,3v3A3,3,0,0,1-3106,922Zm-3.1-8.1a2,2,0,0,0-2,2v3.2a2,2,0,0,0,2,2h3.2a2,2,0,0,0,2-2v-3.2a2,2,0,0,0-2-2Z" transform="translate(3132 -907)"/></g><g class="c" transform="matrix(1, 0, 0, 1, 14, 303)"><path class="a" d="M-3106,922h-3a3,3,0,0,1-3-3v-3a3,3,0,0,1,3-3h3a3,3,0,0,1,3,3v3A3,3,0,0,1-3106,922Zm-3.1-8.1a2,2,0,0,0-2,2v3.2a2,2,0,0,0,2,2h3.2a2,2,0,0,0,2-2v-3.2a2,2,0,0,0-2-2Z" transform="translate(3121 -897)"/></g><g class="b" transform="matrix(1, 0, 0, 1, 14, 303)"><path class="a" d="M-3106,922h-3a3,3,0,0,1-3-3v-3a3,3,0,0,1,3-3h3a3,3,0,0,1,3,3h-.9v-.1a2,2,0,0,0-2-2h-3.2a2,2,0,0,0-2,2v3.2a2,2,0,0,0,2,2h3.2a2,2,0,0,0,2-2V918h.9v1A3,3,0,0,1-3106,922Z" transform="translate(3132 -897)"/></g></g></svg>