<svg xmlns="http://www.w3.org/2000/svg" width="20.287" height="19.335" viewBox="0 0 20.287 19.335"><defs><style>.a{fill:#fff;}</style></defs><path class="a" d="M-3092.428,932.334h-18.859a.724.724,0,0,1-.714-.715,12.022,12.022,0,0,1,1.9-6.059c1.336-2.095,3.01-3.248,4.713-3.248h6.664c2.494,0,4.613,2.421,5.764,4.687h-1.715c-1.659-2.836-3.249-3.26-4.049-3.26h-6.664c-2.772,0-4.782,4.594-5.128,7.166h17.312a8.5,8.5,0,0,0-.474-1.833l-.029-.073h1.559a9.146,9.146,0,0,1,.432,2.62A.724.724,0,0,1-3092.428,932.334Zm-9.52-10.607a4.369,4.369,0,0,1-4.352-4.376,4.357,4.357,0,0,1,4.352-4.352,4.369,4.369,0,0,1,4.353,4.376A4.357,4.357,0,0,1-3101.948,921.728Zm0-7.581a3.168,3.168,0,0,0-2.265.951,3.219,3.219,0,0,0-.938,2.278,3.2,3.2,0,0,0,3.2,3.181,3.208,3.208,0,0,0,3.2-3.2A3.208,3.208,0,0,0-3101.948,914.147Z" transform="translate(3112 -913)"/></svg>