<svg xmlns="http://www.w3.org/2000/svg" width="18.14" height="21.595" viewBox="0 0 18.14 21.595"><defs><style>.a{fill:#8a94a6;}</style></defs><path class="a" d="M12.564,1496.025a4.817,4.817,0,0,0-4.81,4.81v3.207a4.856,4.856,0,0,0,2.605,4.259,9.06,9.06,0,0,0-6.864,8.468.8.8,0,0,0,.8.852H20.832a.8.8,0,0,0,.8-.8,9.037,9.037,0,0,0-6.814-8.518,4.813,4.813,0,0,0,2.555-4.259v-3.207A4.817,4.817,0,0,0,12.564,1496.025Zm0,1.6a3.182,3.182,0,0,1,3.207,3.207v3.207a3.207,3.207,0,1,1-6.413,0v-3.207A3.182,3.182,0,0,1,12.564,1497.629Zm.251,11.975a7.323,7.323,0,0,1,7.015,6.413H5.3A7.4,7.4,0,0,1,12.815,1509.6Z" transform="translate(-3.494 -1496.025)"/></svg>